<svg version="1.0" xmlns="http://www.w3.org/2000/svg" width="600.000000pt" height="581.000000pt" viewBox="0 0 600.000000 581.000000" preserveAspectRatio="xMidYMid meet" style="width: 465.165px; height: auto;"> <g transform="translate(0.000000,581.000000) scale(0.100000,-0.100000)" fill="#000000" stroke="none" class=""> <path d="M2070 5635 c-267 -27 -611 -102 -883 -193 -135 -46 -159 -62 -155 -106 7 -74 169 -91 586 -61 304 22 494 17 741 -19 261 -38 264 -42 66 -75 -1211 -200 -1492 -261 -1503 -324 -8 -39 8 -65 50 -85 90 -42 163 -47 725 -47 292 0 530 -2 528 -3 -2 -2 -45 -23 -97 -46 -369 -166 -619 -515 -578 -807 46 -322 400 -668 875 -854 39 -15 71 -28 73 -30 1 -1 -31 -73 -73 -160 -41 -86 -75 -159 -75 -160 0 -8 -241 -490 -248 -497 -24 -22 -409 122 -484 182 -55 45 -108 37 -108 -16 0 -32 57 -77 163 -128 78 -38 140 -59 365 -125 26 -7 -73 -198 -301 -579 -116 -194 -122 -202 -148 -197 -21 5 -36 -2 -75 -36 -107 -93 -455 -293 -599 -345 -62 -22 -85 -41 -85 -70 0 -30 33 -48 73 -40 45 9 296 134 421 210 60 36 112 66 115 66 3 0 7 -42 9 -93 10 -320 108 -597 211 -597 58 0 69 54 20 97 -58 52 -94 157 -124 364 -23 160 -21 173 24 227 108 130 329 493 498 817 64 122 82 150 98 148 11 -2 76 -12 145 -22 219 -35 532 -51 571 -31 22 12 26 62 7 77 -7 6 -96 13 -198 16 -151 5 -485 38 -496 50 -1 1 34 74 78 162 78 153 281 577 298 622 9 21 9 21 144 -23 138 -44 389 -102 551 -126 121 -18 573 -18 675 0 393 70 609 193 726 415 96 182 108 445 29 638 -30 74 -35 66 55 79 72 10 77 10 152 -22 92 -37 93 -39 29 -62 -161 -57 -223 -178 -120 -232 82 -42 272 -35 484 17 249 62 297 88 261 144 -25 38 -146 88 -247 101 -61 8 -66 15 -29 43 69 51 27 101 -92 111 -97 7 -94 10 74 49 174 41 198 52 198 90 0 47 -25 55 -159 47 -64 -3 -241 -13 -395 -21 l-278 -15 -37 32 c-48 42 -92 99 -88 112 2 6 32 16 68 22 35 7 199 39 364 72 165 34 347 66 405 72 136 15 168 25 176 56 16 64 -9 71 -165 50 -238 -32 -851 -51 -851 -26 0 6 4 10 9 10 18 0 71 65 71 87 0 17 7 24 28 29 149 33 215 92 188 171 -16 50 -198 116 -352 129 l-71 7 -11 44 c-45 168 -499 343 -719 278 -65 -19 -118 -72 -147 -145 -27 -66 -58 -87 -153 -102 -65 -10 -279 -12 -294 -2 -15 9 3 45 20 38 182 -77 461 42 449 193 l-4 51 37 6 c36 6 49 20 49 56 0 35 -30 40 -166 30 -217 -16 -457 -12 -662 11 -207 23 -202 22 -179 47 25 27 21 74 -8 102 -55 51 -275 71 -525 45z m357 -86 c113 -16 114 -22 4 -39 -64 -11 -87 -9 -194 11 -120 23 -121 24 -72 30 85 10 180 9 262 -2z m-477 -39 c0 -41 153 -90 281 -90 84 0 231 -19 244 -32 26 -24 -780 18 -925 49 l-25 6 30 9 c30 9 359 76 383 77 6 1 12 -8 12 -19z m-550 -145 l45 -12 -45 -4 c-25 -2 -76 -2 -115 1 -66 5 -68 6 -40 17 61 24 63 24 155 -2z m1540 -57 c-14 -6 -48 -21 -76 -34 l-52 -22 -73 19 c-114 30 -113 33 11 39 205 10 219 10 190 -2z m500 -42 c0 -46 -117 -106 -203 -106 l-30 0 41 29 c24 18 46 44 53 65 l13 36 63 0 c60 0 63 -1 63 -24z m-260 -27 c-8 -5 -37 -21 -64 -35 -26 -14 -58 -37 -70 -51 l-22 -26 -37 33 c-44 38 -41 47 19 56 25 3 64 12 87 20 53 16 109 19 87 3z m630 -18 c-8 -5 -34 -11 -58 -15 -24 -4 -67 -19 -95 -34 -69 -36 -67 -35 -67 -24 0 21 37 53 75 67 43 15 171 21 145 6z m313 -88 c79 -40 172 -117 161 -134 -3 -5 -52 -9 -109 -9 -120 0 -223 -19 -300 -56 l-54 -25 -106 19 c-58 11 -109 22 -113 26 -9 9 18 26 43 26 44 0 239 51 295 76 66 29 82 55 61 100 -6 14 -11 27 -11 29 0 6 90 -29 133 -52z m-1346 -5 c20 -33 51 -48 136 -63 20 -4 37 -11 37 -16 0 -5 -17 -9 -37 -9 -42 0 -366 -42 -513 -66 -292 -48 -475 -96 -521 -136 -26 -23 -32 -24 -285 -26 -285 -4 -523 12 -503 32 8 8 355 75 627 121 331 56 715 127 892 165 74 15 138 29 142 29 3 1 15 -14 25 -31z m1083 -8 c-8 -5 -46 -17 -85 -26 -38 -9 -77 -20 -86 -25 -8 -4 -22 -4 -29 1 -14 8 20 28 90 53 27 10 126 8 110 -3z m-220 -45 c0 -3 -2 -5 -5 -5 -3 0 -5 2 -5 5 0 3 2 5 5 5 3 0 5 -2 5 -5z m-30 -20 c0 -3 -2 -5 -5 -5 -3 0 -5 2 -5 5 0 3 2 5 5 5 3 0 5 -2 5 -5z m-160 -60 c0 -3 -2 -5 -5 -5 -3 0 -5 2 -5 5 0 3 2 5 5 5 3 0 5 -2 5 -5z m-410 -44 c0 -14 -226 -79 -237 -68 -8 8 -11 6 62 42 59 29 175 46 175 26z m475 -22 c11 -48 57 -69 208 -94 30 -5 37 -10 37 -28 0 -13 5 -28 11 -34 23 -23 -2 -31 -88 -26 -109 5 -113 7 -113 37 0 31 -30 48 -117 66 -70 14 -76 23 -34 44 15 8 36 26 45 40 22 35 43 33 51 -5z m-244 1 c-26 -96 6 -131 143 -160 52 -11 70 -24 45 -32 -6 -2 -52 6 -102 19 -102 25 -303 53 -380 53 -60 0 -53 12 18 29 69 17 145 53 180 85 33 31 104 35 96 6z m-612 -37 c-13 -16 -27 -32 -31 -37 -10 -13 -274 -35 -413 -35 -154 0 -133 8 141 53 283 46 264 43 298 45 l29 1 -24 -27z m1871 -25 c107 -21 180 -44 180 -58 0 -10 -71 -36 -138 -52 -43 -9 -68 -9 -130 3 -51 9 -154 14 -307 14 -218 1 -285 9 -285 32 0 5 63 6 140 5 163 -4 254 12 323 59 47 32 38 32 217 -3z m-680 -83 c0 -3 -2 -5 -5 -5 -3 0 -5 2 -5 5 0 3 2 5 5 5 3 0 5 -2 5 -5z m-874 -65 c166 -13 408 -56 460 -81 22 -10 46 -19 52 -19 7 0 24 -13 38 -30 28 -31 101 -59 205 -80 75 -14 309 -173 309 -209 0 -4 -24 -13 -52 -20 -101 -24 -267 -82 -292 -102 -32 -25 -34 -68 -6 -94 25 -23 129 -34 333 -34 126 -1 157 -4 157 -15 0 -43 74 -44 90 -1 8 22 14 24 101 27 100 3 98 4 122 -32 24 -35 23 -37 -40 -44 -144 -17 -199 -59 -146 -112 17 -17 155 -16 249 2 31 6 32 4 54 -53 101 -269 50 -557 -131 -728 -288 -272 -1005 -320 -1682 -113 -73 22 -139 42 -147 45 -9 2 -20 14 -25 26 -8 18 -18 22 -60 23 -52 0 -115 24 -255 97 -584 305 -812 720 -575 1048 14 19 33 45 42 58 184 256 526 416 948 444 104 7 126 7 251 -3z m1114 -65 c58 -9 149 -15 235 -15 77 1 143 1 146 1 4 -1 -16 -23 -43 -50 l-49 -49 -102 4 c-211 9 -218 11 -304 65 -123 78 -111 82 117 44z m-268 -30 c6 -14 15 -25 20 -25 4 0 8 -7 8 -15 0 -12 -12 -9 -55 12 -60 30 -67 39 -32 46 43 8 48 7 59 -18z m284 -216 c99 -72 102 -76 72 -88 -20 -8 -31 -1 -82 51 -33 33 -70 67 -83 75 -26 17 -31 38 -7 29 9 -3 54 -34 100 -67z m254 32 c50 -94 -32 -106 -130 -21 l-45 39 82 1 c71 0 84 -3 93 -19z m338 3 c-9 -9 -230 -54 -239 -49 -12 8 -12 52 1 57 14 4 243 -2 238 -8z m-280 -166 c22 -22 15 -44 -8 -23 -21 19 -26 35 -12 35 4 0 13 -5 20 -12z m-78 -73 l54 -55 -70 0 -70 0 -22 45 c-12 25 -22 47 -22 50 0 3 14 6 65 14 6 0 35 -24 65 -54z m-201 -19 c12 -18 21 -36 21 -40 0 -3 -65 -6 -145 -6 -80 0 -145 4 -145 9 0 7 204 68 237 70 6 1 21 -14 32 -33z m281 29 c0 -3 -2 -5 -5 -5 -3 0 -5 2 -5 5 0 3 2 5 5 5 3 0 5 -2 5 -5z m528 -135 c-29 -18 -143 -37 -166 -29 -43 16 -21 28 56 32 42 1 88 4 102 5 20 1 22 0 8 -8z m-314 -31 c20 -12 33 -25 30 -30 -10 -17 -53 -9 -68 13 -31 43 -16 49 38 17z m504 -119 c6 0 12 -4 12 -10 0 -17 -57 -11 -64 6 -5 13 -2 15 16 10 13 -3 29 -6 36 -6z m121 -151 c155 -40 150 -38 130 -49 -45 -26 -326 -72 -416 -68 -137 5 -134 17 17 88 47 22 92 45 100 50 24 14 47 12 169 -21z" class=""></path> <path d="M2700 4244 c-180 -78 -131 -344 63 -344 191 0 253 250 83 335 -57 28 -96 31 -146 9z"></path> <path d="M3415 3975 c-78 -28 -135 -123 -121 -200 30 -159 254 -199 333 -60 81 143 -60 316 -212 260z"></path> <path d="M2700 3626 c-34 -42 -26 -188 13 -219 49 -40 164 -4 270 84 28 24 31 30 22 55 -15 42 -56 44 -104 6 -49 -39 -112 -73 -123 -65 -6 3 -7 31 -3 64 8 66 -2 89 -40 89 -12 0 -28 -6 -35 -14z"></path>  <path d="M5992 330 c0 -19 2 -27 5 -17 2 9 2 25 0 35 -3 9 -5 1 -5 -18z"></path> </g> </svg>